<?xml version="1.0" encoding="utf-8"?>
<!-- Generator: Adobe Illustrator 16.2.1, SVG Export Plug-In . SVG Version: 6.00 Build 0)  -->
<!DOCTYPE svg PUBLIC "-//W3C//DTD SVG 1.1//EN" "http://www.w3.org/Graphics/SVG/1.1/DTD/svg11.dtd">
<svg version="1.1" id="Layer_1" xmlns="http://www.w3.org/2000/svg" xmlns:xlink="http://www.w3.org/1999/xlink" x="0px" y="0px"
	 width="50px" height="50px" viewBox="0 0 50 50" enable-background="new 0 0 50 50" xml:space="preserve">
<rect fill="#777777" width="50" height="50"/>
<polygon fill="#231F20" points="22.751,0 0,22.751 0,29.822 29.822,0 "/>
<polygon fill="#231F20" points="36.894,0 0,36.894 0,43.965 43.965,0 "/>
<polygon fill="#231F20" points="50,1.035 1.036,50 8.106,50 50,8.106 "/>
<polygon fill="#231F20" points="50,15.178 15.178,50 22.249,50 50,22.249 "/>
<polygon fill="#231F20" points="50,22.751 27.248,0 20.178,0 50,29.822 "/>
<polygon fill="#231F20" points="50,36.894 13.106,0 6.035,0 50,43.965 "/>
<polygon fill="#231F20" points="48.965,50 0,1.036 0,8.106 41.894,50 "/>
<polygon fill="#231F20" points="34.822,50 0,15.178 0,22.249 27.751,50 "/>
</svg>
