<?xml version="1.0" encoding="utf-8"?>
<!-- Generator: Adobe Illustrator 16.2.1, SVG Export Plug-In . SVG Version: 6.00 Build 0)  -->
<!DOCTYPE svg PUBLIC "-//W3C//DTD SVG 1.1//EN" "http://www.w3.org/Graphics/SVG/1.1/DTD/svg11.dtd">
<svg version="1.1" id="Layer_1" xmlns="http://www.w3.org/2000/svg" xmlns:xlink="http://www.w3.org/1999/xlink" x="0px" y="0px"
	 width="50px" height="50px" viewBox="0 0 50 50" enable-background="new 0 0 50 50" xml:space="preserve">
<path fill="#231F20" d="M25,0C11.193,0,0,11.193,0,25s11.193,25,25,25s25-11.193,25-25S38.807,0,25,0z M25,45.901
	C13.457,45.901,4.099,36.543,4.099,25S13.457,4.099,25,4.099S45.901,13.457,45.901,25S36.543,45.901,25,45.901z"/>
<path fill="#A5A5A5" d="M25,4.099C13.457,4.099,4.099,13.457,4.099,25S13.457,45.901,25,45.901S45.901,36.543,45.901,25
	S36.543,4.099,25,4.099z M25,38.409c-7.405,0-13.409-6.004-13.409-13.409S17.595,11.591,25,11.591S38.409,17.595,38.409,25
	S32.405,38.409,25,38.409z"/>
<path fill="#231F20" d="M25,11.591c-7.405,0-13.409,6.004-13.409,13.409S17.595,38.409,25,38.409S38.409,32.405,38.409,25
	S32.405,11.591,25,11.591z M25,32.433c-4.104,0-7.433-3.328-7.433-7.433s3.328-7.433,7.433-7.433s7.433,3.328,7.433,7.433
	S29.104,32.433,25,32.433z"/>
</svg>
