<?xml version="1.0" encoding="utf-8"?>
<!-- Generator: Adobe Illustrator 16.2.1, SVG Export Plug-In . SVG Version: 6.00 Build 0)  -->
<!DOCTYPE svg PUBLIC "-//W3C//DTD SVG 1.1//EN" "http://www.w3.org/Graphics/SVG/1.1/DTD/svg11.dtd">
<svg version="1.1" id="Layer_1" xmlns="http://www.w3.org/2000/svg" xmlns:xlink="http://www.w3.org/1999/xlink" x="0px" y="0px"
	 width="50px" height="50px" viewBox="0 0 50 50" enable-background="new 0 0 50 50" xml:space="preserve">
<rect x="20" y="20" fill="none" width="10" height="10"/>
<rect x="20" y="10" transform="matrix(0.7071 0.7071 -0.7071 0.7071 17.9289 -13.2843)" fill="#777777" width="10" height="10"/>
<rect x="40" y="10" fill="#231F20" width="10" height="10"/>
<rect y="10" fill="#231F20" width="10" height="10"/>
<rect x="40" y="30" fill="#231F20" width="10" height="10"/>
<rect y="30" fill="#231F20" width="10" height="10"/>
<rect x="20" y="30" transform="matrix(-0.7071 -0.7071 0.7071 -0.7071 17.9289 77.4264)" fill="#777777" width="10" height="10"/>
<rect x="10" y="20" transform="matrix(0.7071 -0.7071 0.7071 0.7071 -13.2843 17.9289)" fill="#777777" width="10" height="10"/>
<rect x="10" fill="#231F20" width="10" height="10"/>
<rect x="10" y="40" fill="#231F20" width="10" height="10"/>
<rect x="30" y="40" fill="#231F20" width="10" height="10"/>
<rect x="30" fill="#231F20" width="10" height="10"/>
<rect x="30" y="20" transform="matrix(-0.7071 -0.7071 0.7071 -0.7071 42.0711 67.4264)" fill="#777777" width="10" height="10"/>
</svg>
