<?xml version="1.0" encoding="utf-8"?>
<!-- Generator: Adobe Illustrator 16.2.1, SVG Export Plug-In . SVG Version: 6.00 Build 0)  -->
<!DOCTYPE svg PUBLIC "-//W3C//DTD SVG 1.1//EN" "http://www.w3.org/Graphics/SVG/1.1/DTD/svg11.dtd">
<svg version="1.1" id="Layer_1" xmlns="http://www.w3.org/2000/svg" xmlns:xlink="http://www.w3.org/1999/xlink" x="0px" y="0px"
	 width="50px" height="50px" viewBox="0 0 50 50" enable-background="new 0 0 50 50" xml:space="preserve">
<rect x="37.058" y="18.832" transform="matrix(-0.7072 0.707 -0.707 -0.7072 80.4705 7.5593)" fill="none" width="3.223" height="3.223"/>
<rect x="23.389" y="5.162" transform="matrix(0.7071 0.7071 -0.7071 0.7071 12.1114 -15.694)" fill="none" width="3.222" height="3.222"/>
<rect x="27.945" y="9.719" transform="matrix(-0.707 0.7072 -0.7072 -0.707 58.4662 -1.562)" fill="none" width="3.222" height="3.222"/>
<rect x="32.502" y="14.276" transform="matrix(-0.707 0.7073 -0.7073 -0.707 69.4657 2.9906)" fill="none" width="3.223" height="3.222"/>
<rect x="14.276" y="14.275" transform="matrix(0.7071 0.7071 -0.7071 0.7071 15.8862 -6.5807)" fill="none" width="3.222" height="3.222"/>
<rect x="9.718" y="27.945" transform="matrix(0.7071 -0.7071 0.7071 0.7071 -17.581 16.668)" fill="none" width="3.223" height="3.222"/>
<rect x="14.275" y="32.501" transform="matrix(0.7071 -0.7071 0.7071 0.7071 -19.4683 21.225)" fill="none" width="3.223" height="3.223"/>
<rect x="5.161" y="23.388" transform="matrix(0.7071 -0.7071 0.7071 0.7071 -15.6936 12.1114)" fill="none" width="3.223" height="3.222"/>
<rect x="9.719" y="18.832" transform="matrix(0.707 0.7072 -0.7072 0.707 17.7762 -2.0233)" fill="none" width="3.222" height="3.222"/>
<rect x="23.389" y="23.389" transform="matrix(-0.7071 -0.7071 0.7071 -0.7071 25 60.3553)" fill="none" width="3.222" height="3.222"/>
<rect x="27.946" y="18.832" transform="matrix(-0.7071 0.7071 -0.7071 -0.7071 64.9118 13.9989)" fill="none" width="3.222" height="3.222"/>
<rect x="23.389" y="14.275" transform="matrix(0.7072 0.707 -0.707 0.7072 18.5525 -13.024)" fill="none" width="3.222" height="3.222"/>
<rect x="18.832" y="18.832" transform="matrix(0.7071 0.7071 -0.7071 0.7071 20.443 -8.4681)" fill="none" width="3.222" height="3.222"/>
<rect x="32.502" y="23.389" transform="matrix(-0.7071 -0.7071 0.7071 -0.7071 40.5573 66.7994)" fill="none" width="3.222" height="3.222"/>
<rect x="18.832" y="37.059" transform="matrix(0.7071 -0.7071 0.7071 0.7071 -21.356 25.7818)" fill="none" width="3.222" height="3.222"/>
<rect x="27.946" y="27.946" transform="matrix(-0.7071 -0.7071 0.7071 -0.7071 29.5566 71.356)" fill="none" width="3.222" height="3.222"/>
<rect x="23.389" y="32.502" transform="matrix(-0.7071 -0.7071 0.7071 -0.7071 18.5559 75.9127)" fill="none" width="3.222" height="3.222"/>
<rect x="18.832" y="27.946" transform="matrix(0.7071 -0.7071 0.7071 0.7071 -14.912 23.1126)" fill="none" width="3.222" height="3.222"/>
<rect x="14.276" y="23.388" transform="matrix(0.7071 -0.7071 0.7071 0.7071 -13.024 18.5557)" fill="none" width="3.222" height="3.222"/>
<rect x="18.832" y="9.719" transform="matrix(0.7071 0.7071 -0.7071 0.7071 13.9988 -11.1373)" fill="none" width="3.222" height="3.222"/>
<rect x="41.616" y="23.388" transform="matrix(-0.707 -0.7073 0.7073 -0.707 56.1052 73.2466)" fill="none" width="3.223" height="3.223"/>
<rect x="27.946" y="37.059" transform="matrix(-0.7071 -0.7071 0.7071 -0.7071 23.1126 86.9134)" fill="none" width="3.222" height="3.222"/>
<rect x="37.059" y="27.945" transform="matrix(-0.7071 -0.7071 0.7071 -0.7071 45.1148 77.8004)" fill="none" width="3.222" height="3.223"/>
<rect x="32.503" y="32.502" transform="matrix(-0.7071 -0.7071 0.7071 -0.7071 34.1141 82.3571)" fill="none" width="3.222" height="3.223"/>
<rect x="23.389" y="41.616" transform="matrix(-0.7071 -0.7071 0.7071 -0.7071 12.1119 91.47)" fill="none" width="3.222" height="3.222"/>
<polygon fill="#231F20" points="4.494,25 6.773,22.721 4.558,20.505 6.836,18.227 9.052,20.442 11.33,18.165 9.114,15.949 
	11.393,13.67 13.608,15.886 15.887,13.608 13.67,11.392 15.949,9.113 18.165,11.329 20.443,9.051 18.227,6.835 20.506,4.557 
	22.722,6.773 25,4.494 22.784,2.278 25,0.062 24.938,0 0,24.938 0.062,25 2.278,22.784 "/>
<rect x="11.998" y="21.11" transform="matrix(0.7072 0.707 -0.707 0.7072 20.0494 -2.9684)" fill="#231F20" width="3.222" height="3.222"/>
<rect x="25.667" y="7.44" transform="matrix(-0.707 0.7072 -0.7072 -0.707 52.9658 -3.84)" fill="#231F20" width="3.222" height="3.222"/>
<rect x="21.11" y="11.997" transform="matrix(0.707 0.7072 -0.7072 0.707 16.2802 -12.0816)" fill="#231F20" width="3.222" height="3.222"/>
<rect x="7.44" y="25.667" transform="matrix(0.7072 -0.707 0.707 0.7072 -16.6361 14.387)" fill="#231F20" width="3.223" height="3.222"/>
<rect x="25.667" y="16.553" transform="matrix(-0.7072 0.707 -0.707 -0.7072 59.412 11.7236)" fill="#231F20" width="3.222" height="3.222"/>
<rect x="11.996" y="30.223" transform="matrix(0.7071 -0.7071 0.7071 0.7071 -18.5247 18.9463)" fill="#231F20" width="3.223" height="3.222"/>
<rect x="30.224" y="11.997" transform="matrix(-0.707 0.7072 -0.7072 -0.707 63.9665 0.716)" fill="#231F20" width="3.222" height="3.222"/>
<rect x="16.554" y="25.667" transform="matrix(0.707 -0.7072 0.7072 0.707 -13.9689 20.8373)" fill="#231F20" width="3.221" height="3.223"/>
<rect x="21.11" y="21.11" transform="matrix(0.707 0.7072 -0.7072 0.707 22.725 -9.4117)" fill="#231F20" width="3.222" height="3.222"/>
<rect x="30.224" y="21.11" transform="matrix(-0.7071 0.7071 -0.7071 -0.7071 70.4122 16.2772)" fill="#231F20" width="3.222" height="3.222"/>
<rect x="21.111" y="30.224" transform="matrix(0.7071 -0.7071 0.7071 0.7071 -15.8557 25.3909)" fill="#231F20" width="3.222" height="3.222"/>
<rect x="34.78" y="16.553" transform="matrix(-0.707 0.7072 -0.7072 -0.707 74.9672 5.272)" fill="#231F20" width="3.222" height="3.222"/>
<rect x="16.554" y="34.781" transform="matrix(0.7071 -0.7071 0.7071 0.7071 -20.4123 23.5035)" fill="#231F20" width="3.222" height="3.222"/>
<rect x="25.667" y="25.667" transform="matrix(-0.7071 -0.7071 0.7071 -0.7071 27.2783 65.8557)" fill="#231F20" width="3.222" height="3.222"/>
<rect x="25.667" y="34.781" transform="matrix(-0.7071 -0.7071 0.7071 -0.7071 20.8343 81.413)" fill="#231F20" width="3.222" height="3.222"/>
<rect x="21.111" y="39.337" transform="matrix(0.7071 -0.7071 0.7071 0.7071 -22.2998 28.0601)" fill="#231F20" width="3.222" height="3.222"/>
<rect x="39.337" y="21.111" transform="matrix(-0.707 0.7073 -0.7073 -0.707 85.9676 9.8231)" fill="#231F20" width="3.223" height="3.221"/>
<rect x="34.781" y="25.666" transform="matrix(-0.7071 -0.7071 0.7071 -0.7071 42.836 72.2989)" fill="#231F20" width="3.222" height="3.223"/>
<polygon fill="#231F20" points="47.722,27.216 45.506,25 43.227,27.279 45.442,29.494 43.165,31.773 40.949,29.557 38.67,31.835 
	40.886,34.051 38.608,36.33 36.393,34.113 34.113,36.392 36.33,38.608 34.052,40.887 31.835,38.67 29.557,40.948 31.773,43.165 
	29.495,45.443 27.278,43.227 25,45.505 27.217,47.722 24.999,49.938 25.062,50 49.999,25.062 49.938,25.001 "/>
<polygon fill="#231F20" points="25,4.494 27.278,6.772 29.494,4.557 31.773,6.835 29.557,9.051 31.835,11.329 34.051,9.113 
	36.33,11.392 34.113,13.608 36.392,15.886 38.607,13.67 40.886,15.949 38.67,18.165 40.949,20.443 43.164,18.228 45.442,20.505 
	43.227,22.721 45.506,25 47.722,22.784 49.938,25.001 50,24.938 25.062,0 25,0.062 27.216,2.278 "/>
<rect x="23.433" y="0.711" transform="matrix(-0.7071 0.7071 -0.7071 -0.7071 44.2887 -13.7883)" fill="#231F20" width="3.134" height="3.134"/>
<rect x="27.915" y="5.237" transform="matrix(0.7073 0.7069 -0.7069 0.7073 13.4506 -18.88)" fill="#231F20" width="3.222" height="3.133"/>
<rect x="32.471" y="9.794" transform="matrix(0.7073 0.707 -0.707 0.7073 18.0086 -20.7692)" fill="#231F20" width="3.223" height="3.134"/>
<rect x="37.027" y="14.351" transform="matrix(0.707 0.7072 -0.7072 0.707 22.5765 -22.6613)" fill="#231F20" width="3.222" height="3.133"/>
<rect x="41.585" y="18.908" transform="matrix(0.7072 0.707 -0.707 0.7072 27.1243 -24.5456)" fill="#231F20" width="3.222" height="3.133"/>
<rect x="46.155" y="23.434" transform="matrix(-0.7071 -0.7071 0.7071 -0.7071 63.788 76.4228)" fill="#231F20" width="3.134" height="3.133"/>
<rect x="25.667" y="11.997" transform="matrix(-0.7071 0.7071 -0.7071 -0.7071 56.1894 3.9419)" fill="#231F20" width="3.222" height="3.222"/>
<rect x="34.781" y="21.111" transform="matrix(-0.7071 0.7071 -0.7071 -0.7071 78.191 13.0556)" fill="#231F20" width="3.222" height="3.222"/>
<rect x="39.337" y="25.668" transform="matrix(-0.7071 -0.7071 0.7071 -0.7071 50.6143 75.5218)" fill="#231F20" width="3.223" height="3.221"/>
<rect x="21.111" y="7.44" transform="matrix(0.7071 0.7071 -0.7071 0.7071 13.0552 -13.4156)" fill="#231F20" width="3.222" height="3.222"/>
<rect x="18.863" y="5.237" transform="matrix(0.7073 -0.7069 0.7069 0.7073 1.1825 16.4644)" fill="#231F20" width="3.222" height="3.135"/>
<rect x="27.946" y="14.275" transform="matrix(-0.7071 0.7071 -0.7071 -0.7071 61.6898 6.2202)" fill="#231F20" width="3.222" height="3.222"/>
<rect x="32.502" y="18.832" transform="matrix(-0.7071 0.7071 -0.7071 -0.7071 72.6907 10.7773)" fill="#231F20" width="3.222" height="3.222"/>
<rect x="41.585" y="27.96" transform="matrix(-0.7068 0.7074 -0.7074 -0.7068 94.614 19.8386)" fill="#231F20" width="3.222" height="3.133"/>
<rect x="21.111" y="16.553" transform="matrix(0.7072 0.707 -0.707 0.7072 19.496 -10.7461)" fill="#231F20" width="3.222" height="3.222"/>
<rect x="25.667" y="21.11" transform="matrix(-0.707 0.7072 -0.7072 -0.707 62.6331 19.4954)" fill="#231F20" width="3.222" height="3.222"/>
<rect x="34.78" y="30.224" transform="matrix(-0.7071 -0.7071 0.7071 -0.7071 39.614 80.0776)" fill="#231F20" width="3.223" height="3.221"/>
<rect x="30.224" y="25.667" transform="matrix(-0.7071 -0.7071 0.7071 -0.7071 35.057 69.0777)" fill="#231F20" width="3.222" height="3.222"/>
<rect x="16.554" y="11.997" transform="matrix(0.707 0.7072 -0.7072 0.707 14.9451 -8.8593)" fill="#231F20" width="3.222" height="3.222"/>
<rect x="14.307" y="9.793" transform="matrix(0.7073 -0.707 0.707 0.7073 -3.3716 14.579)" fill="#231F20" width="3.223" height="3.135"/>
<rect x="18.832" y="14.275" transform="matrix(0.7071 0.7071 -0.7071 0.7071 17.221 -9.8027)" fill="#231F20" width="3.222" height="3.222"/>
<rect x="23.389" y="18.832" transform="matrix(0.707 0.7072 -0.7072 0.707 21.7811 -11.6904)" fill="#231F20" width="3.222" height="3.222"/>
<rect x="27.946" y="23.389" transform="matrix(-0.7071 -0.7071 0.7071 -0.7071 32.7787 63.5774)" fill="#231F20" width="3.222" height="3.222"/>
<rect x="32.503" y="27.946" transform="matrix(-0.7073 -0.707 0.707 -0.7073 37.345 74.5774)" fill="#231F20" width="3.221" height="3.221"/>
<rect x="37.028" y="32.516" transform="matrix(-0.7068 0.7074 -0.7074 -0.7068 90.0598 30.8384)" fill="#231F20" width="3.222" height="3.134"/>
<rect x="25.667" y="30.224" transform="matrix(-0.7071 -0.7071 0.7071 -0.7071 24.0563 73.6344)" fill="#231F20" width="3.222" height="3.222"/>
<rect x="11.997" y="16.553" transform="matrix(0.707 0.7072 -0.7072 0.707 16.8325 -4.302)" fill="#231F20" width="3.222" height="3.222"/>
<rect x="16.554" y="21.11" transform="matrix(0.7071 0.7071 -0.7071 0.7071 21.3867 -6.1897)" fill="#231F20" width="3.222" height="3.222"/>
<rect x="21.111" y="25.667" transform="matrix(0.7071 -0.7071 0.7071 0.7071 -12.6337 24.0563)" fill="#231F20" width="3.222" height="3.222"/>
<rect x="30.224" y="34.781" transform="matrix(-0.7071 -0.7071 0.7071 -0.7071 28.6129 84.6351)" fill="#231F20" width="3.222" height="3.222"/>
<rect x="9.75" y="14.351" transform="matrix(0.707 -0.7072 0.7072 0.707 -7.928 12.6979)" fill="#231F20" width="3.222" height="3.133"/>
<rect x="14.276" y="18.832" transform="matrix(0.7071 0.7071 -0.7071 0.7071 19.1086 -5.246)" fill="#231F20" width="3.222" height="3.222"/>
<rect x="18.832" y="23.388" transform="matrix(0.7073 -0.707 0.707 0.7073 -11.6891 21.771)" fill="#231F20" width="3.223" height="3.223"/>
<rect x="23.389" y="27.946" transform="matrix(-0.7071 -0.7071 0.7071 -0.7071 21.778 68.134)" fill="#231F20" width="3.222" height="3.222"/>
<rect x="27.946" y="32.502" transform="matrix(-0.7071 -0.7071 0.7071 -0.7071 26.3346 79.1347)" fill="#231F20" width="3.222" height="3.222"/>
<rect x="32.472" y="37.072" transform="matrix(-0.7071 0.7071 -0.7071 -0.7071 85.5045 41.8612)" fill="#231F20" width="3.222" height="3.135"/>
<rect x="7.441" y="21.11" transform="matrix(0.707 0.7072 -0.7072 0.707 18.7197 0.2553)" fill="#231F20" width="3.222" height="3.222"/>
<rect x="11.998" y="25.667" transform="matrix(0.7072 -0.707 0.707 0.7072 -15.3013 17.6089)" fill="#231F20" width="3.222" height="3.222"/>
<rect x="25.667" y="39.337" transform="matrix(-0.707 -0.7073 0.7073 -0.707 17.6022 89.1888)" fill="#231F20" width="3.223" height="3.222"/>
<rect x="21.111" y="34.781" transform="matrix(0.7071 -0.7071 0.7071 0.7071 -19.0777 26.7255)" fill="#231F20" width="3.222" height="3.222"/>
<rect x="5.194" y="18.907" transform="matrix(0.7071 -0.7071 0.7071 0.7071 -12.4842 10.8083)" fill="#231F20" width="3.222" height="3.133"/>
<rect x="14.276" y="27.945" transform="matrix(0.7071 -0.7071 0.7071 0.7071 -16.2459 19.8903)" fill="#231F20" width="3.222" height="3.222"/>
<rect x="18.832" y="32.502" transform="matrix(0.7071 -0.7071 0.7071 0.7071 -18.134 24.4472)" fill="#231F20" width="3.222" height="3.222"/>
<rect x="27.915" y="41.628" transform="matrix(-0.7071 0.7071 -0.7071 -0.7071 80.9479 52.8619)" fill="#231F20" width="3.222" height="3.135"/>
<polygon fill="#231F20" points="25,45.505 22.722,43.227 20.505,45.443 18.227,43.165 20.443,40.948 18.165,38.67 15.948,40.887 
	13.67,38.608 15.887,36.392 13.607,34.113 11.392,36.33 9.113,34.051 11.329,31.835 9.051,29.557 6.835,31.772 4.557,29.494 
	6.772,27.278 4.494,25 2.278,27.216 0.062,25 0,25.062 24.938,50 24.999,49.938 22.783,47.722 "/>
<rect x="0.711" y="23.433" transform="matrix(0.7071 0.7071 -0.7071 0.7071 18.345 5.7113)" fill="#231F20" width="3.134" height="3.134"/>
<rect x="5.193" y="27.959" transform="matrix(-0.7071 -0.7071 0.7071 -0.7071 -9.2629 55.2139)" fill="#231F20" width="3.222" height="3.134"/>
<rect x="9.749" y="32.515" transform="matrix(-0.707 -0.7073 0.7073 -0.707 -4.7132 66.2112)" fill="#231F20" width="3.223" height="3.134"/>
<rect x="14.306" y="37.072" transform="matrix(-0.7071 -0.7071 0.7071 -0.7071 -0.1492 77.2165)" fill="#231F20" width="3.222" height="3.135"/>
<rect x="18.863" y="41.628" transform="matrix(-0.7071 -0.7071 0.7071 -0.7071 4.4075 88.2172)" fill="#231F20" width="3.222" height="3.135"/>
<rect x="23.432" y="46.154" transform="matrix(0.7071 -0.7071 0.7071 0.7071 -26.4218 31.6545)" fill="#231F20" width="3.135" height="3.134"/>
<rect x="29.833" y="10.5" fill="none" width="3.223" height="3.223"/>
<rect x="10.5" y="10.5" fill="none" width="3.223" height="3.223"/>
<rect x="16.945" y="10.5" fill="none" width="3.222" height="3.223"/>
<rect x="23.389" y="10.5" fill="none" width="3.222" height="3.223"/>
<rect x="10.5" y="23.389" fill="none" width="3.223" height="3.222"/>
<rect x="16.944" y="36.276" fill="none" width="3.222" height="3.224"/>
<rect x="23.389" y="36.276" fill="none" width="3.223" height="3.224"/>
<rect x="10.5" y="36.276" fill="none" width="3.223" height="3.224"/>
<rect x="10.5" y="29.833" fill="none" width="3.223" height="3.222"/>
<rect x="23.389" y="23.389" fill="none" width="3.223" height="3.222"/>
<rect x="23.389" y="16.945" fill="none" width="3.222" height="3.222"/>
<rect x="16.945" y="16.945" fill="none" width="3.222" height="3.222"/>
<rect x="16.944" y="23.389" fill="none" width="3.223" height="3.222"/>
<rect x="29.833" y="16.945" fill="none" width="3.222" height="3.222"/>
<rect x="29.833" y="36.277" fill="none" width="3.222" height="3.222"/>
<rect x="29.833" y="23.389" fill="none" width="3.222" height="3.222"/>
<rect x="29.833" y="29.833" fill="none" width="3.222" height="3.222"/>
<rect x="23.389" y="29.833" fill="none" width="3.223" height="3.222"/>
<rect x="16.944" y="29.833" fill="none" width="3.222" height="3.222"/>
<rect x="10.5" y="16.944" fill="none" width="3.223" height="3.222"/>
<rect x="36.277" y="10.5" fill="none" width="3.223" height="3.224"/>
<rect x="36.277" y="29.833" fill="none" width="3.222" height="3.222"/>
<rect x="36.278" y="16.944" fill="none" width="3.222" height="3.223"/>
<rect x="36.278" y="23.388" fill="none" width="3.222" height="3.223"/>
<rect x="36.277" y="36.277" fill="none" width="3.222" height="3.222"/>
<polygon fill="#231F20" points="10.5,39.5 10.5,36.276 7.367,36.276 7.367,33.055 10.5,33.055 10.5,29.833 7.367,29.833 
	7.367,26.61 10.5,26.61 10.5,23.389 7.366,23.389 7.366,20.166 10.5,20.166 10.5,16.944 7.366,16.945 7.367,13.723 10.501,13.723 
	10.5,10.5 7.366,10.5 7.366,7.367 7.278,7.367 7.278,42.634 7.366,42.634 7.366,39.5 "/>
<rect x="13.723" y="29.833" fill="#231F20" width="3.222" height="3.222"/>
<rect x="13.723" y="10.5" fill="#231F20" width="3.222" height="3.222"/>
<rect x="13.723" y="16.945" fill="#231F20" width="3.223" height="3.222"/>
<rect x="13.723" y="36.276" fill="#231F20" width="3.222" height="3.224"/>
<rect x="20.167" y="16.945" fill="#231F20" width="3.222" height="3.222"/>
<rect x="20.166" y="36.276" fill="#231F20" width="3.223" height="3.224"/>
<rect x="20.166" y="10.5" fill="#231F20" width="3.223" height="3.222"/>
<rect x="20.166" y="29.833" fill="#231F20" width="3.223" height="3.222"/>
<rect x="20.167" y="23.389" fill="#231F20" width="3.222" height="3.222"/>
<rect x="26.61" y="16.945" fill="#231F20" width="3.223" height="3.222"/>
<rect x="26.611" y="29.833" fill="#231F20" width="3.222" height="3.222"/>
<rect x="26.61" y="10.5" fill="#231F20" width="3.223" height="3.222"/>
<rect x="26.611" y="36.277" fill="#231F20" width="3.222" height="3.222"/>
<rect x="26.611" y="23.389" fill="#231F20" width="3.222" height="3.222"/>
<rect x="33.055" y="29.833" fill="#231F20" width="3.223" height="3.222"/>
<rect x="33.055" y="36.277" fill="#231F20" width="3.223" height="3.222"/>
<rect x="33.056" y="10.5" fill="#231F20" width="3.221" height="3.223"/>
<rect x="33.054" y="16.944" fill="#231F20" width="3.223" height="3.223"/>
<polygon fill="#231F20" points="42.634,10.5 39.5,10.5 39.5,13.724 42.633,13.723 42.634,16.945 39.5,16.944 39.499,20.167 
	42.633,20.167 42.634,23.389 39.5,23.388 39.499,26.611 42.634,26.611 42.634,29.833 39.499,29.833 39.499,33.055 42.634,33.055 
	42.634,36.277 39.499,36.277 39.499,39.499 42.634,39.499 42.633,42.634 42.721,42.634 42.721,7.367 42.634,7.367 "/>
<polygon fill="#231F20" points="10.5,10.5 13.723,10.5 13.723,7.367 16.945,7.366 16.944,10.5 20.166,10.5 20.166,7.367 
	23.389,7.366 23.389,10.5 26.61,10.5 26.61,7.367 29.833,7.367 29.833,10.5 33.056,10.5 33.055,7.367 36.276,7.367 36.276,10.5 
	39.5,10.5 39.5,7.367 42.634,7.367 42.634,7.278 7.367,7.278 7.366,7.367 10.5,7.367 "/>
<rect x="7.366" y="7.367" fill="#231F20" width="3.134" height="3.133"/>
<rect x="13.723" y="7.366" fill="#231F20" width="3.223" height="3.133"/>
<rect x="20.166" y="7.366" fill="#231F20" width="3.223" height="3.133"/>
<rect x="26.61" y="7.367" fill="#231F20" width="3.223" height="3.133"/>
<rect x="33.055" y="7.367" fill="#231F20" width="3.222" height="3.133"/>
<rect x="39.5" y="7.367" fill="#231F20" width="3.134" height="3.133"/>
<rect x="16.945" y="13.723" fill="#231F20" width="3.222" height="3.222"/>
<rect x="29.833" y="13.723" fill="#231F20" width="3.222" height="3.222"/>
<rect x="36.276" y="13.724" fill="#231F20" width="3.224" height="3.221"/>
<rect x="10.5" y="13.723" fill="#231F20" width="3.222" height="3.222"/>
<rect x="7.367" y="13.722" fill="#231F20" width="3.134" height="3.222"/>
<rect x="20.167" y="13.723" fill="#231F20" width="3.222" height="3.222"/>
<rect x="26.611" y="13.723" fill="#231F20" width="3.222" height="3.222"/>
<rect x="39.5" y="13.723" fill="#231F20" width="3.133" height="3.222"/>
<rect x="16.944" y="20.166" fill="#231F20" width="3.222" height="3.222"/>
<rect x="23.389" y="20.167" fill="#231F20" width="3.222" height="3.223"/>
<rect x="36.276" y="20.167" fill="#231F20" width="3.224" height="3.221"/>
<rect x="29.833" y="20.167" fill="#231F20" width="3.222" height="3.222"/>
<rect x="10.5" y="20.166" fill="#231F20" width="3.223" height="3.223"/>
<rect x="7.366" y="20.166" fill="#231F20" width="3.134" height="3.223"/>
<rect x="13.723" y="20.167" fill="#231F20" width="3.222" height="3.222"/>
<rect x="33.055" y="20.167" fill="#231F20" width="3.222" height="3.221"/>
<rect x="39.5" y="20.167" fill="#231F20" width="3.134" height="3.222"/>
<rect x="29.833" y="26.611" fill="#231F20" width="3.222" height="3.222"/>
<rect x="10.5" y="26.61" fill="#231F20" width="3.223" height="3.223"/>
<rect x="16.944" y="26.61" fill="#231F20" width="3.223" height="3.223"/>
<rect x="23.389" y="26.611" fill="#231F20" width="3.223" height="3.222"/>
<rect x="36.277" y="26.611" fill="#231F20" width="3.222" height="3.222"/>
<rect x="7.367" y="26.61" fill="#231F20" width="3.133" height="3.223"/>
<rect x="13.723" y="26.61" fill="#231F20" width="3.222" height="3.223"/>
<rect x="33.055" y="26.611" fill="#231F20" width="3.223" height="3.222"/>
<rect x="39.499" y="26.611" fill="#231F20" width="3.135" height="3.222"/>
<rect x="10.5" y="33.055" fill="#231F20" width="3.223" height="3.222"/>
<rect x="16.944" y="33.055" fill="#231F20" width="3.222" height="3.222"/>
<rect x="36.276" y="33.054" fill="#231F20" width="3.223" height="3.223"/>
<rect x="29.833" y="33.055" fill="#231F20" width="3.222" height="3.223"/>
<rect x="7.367" y="33.055" fill="#231F20" width="3.133" height="3.222"/>
<rect x="20.166" y="33.055" fill="#231F20" width="3.223" height="3.222"/>
<rect x="26.611" y="33.055" fill="#231F20" width="3.222" height="3.223"/>
<rect x="39.499" y="33.055" fill="#231F20" width="3.135" height="3.223"/>
<polygon fill="#231F20" points="39.499,39.499 36.277,39.499 36.277,42.634 33.055,42.634 33.055,39.499 29.833,39.499 
	29.833,42.634 26.611,42.634 26.611,39.499 23.389,39.5 23.389,42.634 20.166,42.634 20.166,39.5 16.944,39.5 16.944,42.634 
	13.723,42.634 13.723,39.5 10.5,39.5 10.5,42.634 7.366,42.634 7.366,42.722 42.634,42.722 42.633,42.634 39.499,42.634 "/>
<rect x="7.366" y="39.5" fill="#231F20" width="3.134" height="3.134"/>
<rect x="13.723" y="39.5" fill="#231F20" width="3.222" height="3.134"/>
<rect x="20.166" y="39.5" fill="#231F20" width="3.223" height="3.134"/>
<rect x="26.611" y="39.499" fill="#231F20" width="3.222" height="3.135"/>
<rect x="33.055" y="39.499" fill="#231F20" width="3.223" height="3.135"/>
<rect x="39.499" y="39.499" fill="#231F20" width="3.134" height="3.135"/>
</svg>
