<?xml version="1.0" encoding="utf-8"?>
<!-- Generator: Adobe Illustrator 16.2.1, SVG Export Plug-In . SVG Version: 6.00 Build 0)  -->
<!DOCTYPE svg PUBLIC "-//W3C//DTD SVG 1.1//EN" "http://www.w3.org/Graphics/SVG/1.1/DTD/svg11.dtd">
<svg version="1.1" id="Layer_1" xmlns="http://www.w3.org/2000/svg" xmlns:xlink="http://www.w3.org/1999/xlink" x="0px" y="0px"
	 width="75px" height="50px" viewBox="0 0 75 50" enable-background="new 0 0 75 50" xml:space="preserve">
<path fill="#E2E2E2" d="M37.5,9.668c-20.343,0-36.833,16.491-36.833,36.833c0,1.181,0.061,2.347,0.17,3.499h7.545
	c-0.137-1.148-0.215-2.314-0.215-3.499c0-16.2,13.132-29.333,29.333-29.333c16.2,0,29.333,13.133,29.333,29.333
	c0,1.185-0.078,2.351-0.215,3.499h7.545c0.108-1.152,0.17-2.318,0.17-3.499C74.333,26.159,57.842,9.668,37.5,9.668z"/>
<path fill="#B9B9B9" d="M15.001,46.501c0-12.425,10.073-22.499,22.499-22.499c12.426,0,22.499,10.074,22.499,22.499
	c0,1.19-0.094,2.358-0.272,3.499h6.892c0.137-1.148,0.215-2.314,0.215-3.499c0-16.2-13.133-29.333-29.333-29.333
	c-16.201,0-29.333,13.133-29.333,29.333c0,1.185,0.078,2.351,0.215,3.499h6.892C15.095,48.859,15.001,47.691,15.001,46.501z"/>
<path fill="#8B8B8B" d="M37.5,24.002c-12.426,0-22.499,10.074-22.499,22.499c0,1.19,0.094,2.358,0.272,3.499h44.453
	c0.179-1.141,0.272-2.309,0.272-3.499C59.999,34.076,49.926,24.002,37.5,24.002z"/>
</svg>
